<svg width="25" height="25" viewBox="0 0 25 25" fill="none" xmlns="http://www.w3.org/2000/svg">
<path d="M23.3232 6.22557C22.2054 4.31038 20.6892 2.79412 18.7742 1.67645C16.8589 0.558721 14.7679 0 12.4999 0C10.2321 0 8.14048 0.558892 6.22557 1.67645C4.31038 2.79406 2.79423 4.31038 1.67645 6.22557C0.558835 8.14071 0 10.2321 0 12.4995C0 15.2233 0.794672 17.6726 2.38441 19.848C3.97398 22.0236 6.02747 23.5291 8.54471 24.3645C8.83773 24.4189 9.05464 24.3806 9.19567 24.2507C9.33676 24.1206 9.40722 23.9577 9.40722 23.7626C9.40722 23.7301 9.40443 23.4372 9.39901 22.8837C9.39343 22.3303 9.3908 21.8474 9.3908 21.4354L9.01644 21.5002C8.77776 21.5439 8.47665 21.5624 8.11312 21.5572C7.74976 21.5521 7.37254 21.5141 6.98199 21.4432C6.59127 21.3731 6.22785 21.2103 5.89146 20.9553C5.55523 20.7003 5.31655 20.3666 5.17546 19.9545L5.0127 19.58C4.90422 19.3306 4.73343 19.0536 4.5001 18.75C4.26677 18.4461 4.03082 18.2401 3.79213 18.1316L3.67818 18.05C3.60224 17.9958 3.53178 17.9304 3.46663 17.8546C3.40152 17.7787 3.35278 17.7028 3.32023 17.6267C3.28763 17.5506 3.31465 17.4882 3.40158 17.4392C3.48852 17.3903 3.64563 17.3665 3.8736 17.3665L4.19899 17.4151C4.41601 17.4586 4.68446 17.5885 5.00466 17.8057C5.3247 18.0226 5.58778 18.3047 5.79398 18.6517C6.04366 19.0967 6.34449 19.4358 6.6973 19.6691C7.04983 19.9025 7.40527 20.0189 7.76327 20.0189C8.12127 20.0189 8.43047 19.9918 8.69099 19.9378C8.95123 19.8835 9.19539 19.802 9.42336 19.6935C9.52101 18.9663 9.78689 18.4075 10.2208 18.017C9.60236 17.952 9.04637 17.8541 8.55252 17.724C8.05896 17.5937 7.54892 17.3822 7.02275 17.0889C6.4963 16.7961 6.05957 16.4324 5.71246 15.9986C5.36529 15.5646 5.08037 14.9947 4.8581 14.2896C4.63572 13.5842 4.5245 12.7705 4.5245 11.8482C4.5245 10.5351 4.95319 9.41766 5.81039 8.49529C5.40884 7.50805 5.44675 6.40132 5.92424 5.17523C6.23891 5.07746 6.70557 5.15083 7.32398 5.39487C7.9425 5.63903 8.39536 5.84819 8.68301 6.0216C8.97067 6.19496 9.20114 6.34187 9.37479 6.46101C10.3841 6.179 11.4257 6.03796 12.4998 6.03796C13.5739 6.03796 14.6157 6.179 15.625 6.46101L16.2435 6.07057C16.6664 5.81005 17.1659 5.57131 17.7406 5.35428C18.3157 5.13737 18.7554 5.07763 19.0594 5.1754C19.5475 6.40155 19.591 7.50822 19.1893 8.49546C20.0465 9.41783 20.4753 10.5356 20.4753 11.8484C20.4753 12.7707 20.3637 13.5869 20.1417 14.2978C19.9193 15.0087 19.632 15.578 19.2794 16.0068C18.9265 16.4355 18.487 16.7963 17.9608 17.0891C17.4345 17.3821 16.9243 17.5936 16.4308 17.7239C15.937 17.8542 15.381 17.9522 14.7626 18.0173C15.3266 18.5054 15.6087 19.2758 15.6087 20.3283V23.7622C15.6087 23.9572 15.6765 24.1201 15.8123 24.2503C15.9479 24.3802 16.1621 24.4184 16.4551 24.364C18.9727 23.5287 21.0262 22.0232 22.6157 19.8476C24.205 17.6722 25 15.2229 25 12.4991C24.9994 10.2319 24.4403 8.14071 23.3232 6.22557Z" fill="black"/>
</svg>
