<svg width="150" height="55" viewBox="0 0 150 55" fill="none" xmlns="http://www.w3.org/2000/svg">
<path d="M26.4095 54.8788C26.3575 54.8865 26.3044 54.882 26.2544 54.8656C26.2045 54.8491 26.1591 54.8212 26.1219 54.784C26.0847 54.7468 26.0568 54.7014 26.0403 54.6515C26.0239 54.6015 26.0194 54.5484 26.0271 54.4964L26.1792 2.06874C26.1729 2.02738 26.1765 1.98513 26.1896 1.9454C26.2026 1.90566 26.2248 1.86955 26.2544 1.83998C26.284 1.8104 26.3201 1.78818 26.3598 1.7751C26.3996 1.76203 26.4418 1.75847 26.4832 1.76471H50.8982C51.1515 1.76471 51.2805 1.86605 51.2805 2.06874V10.6923C51.2867 10.7337 51.2832 10.7759 51.2701 10.8156C51.257 10.8554 51.2348 10.8915 51.2052 10.9211C51.1757 10.9506 51.1395 10.9729 51.0998 10.9859C51.0601 10.999 51.0178 11.0026 50.9765 10.9963H35.314V22.8261H50.9765C51.1792 22.8261 51.2805 22.9551 51.2805 23.2084L51.3588 31.832C51.3588 32.0347 51.2298 32.136 50.9765 32.136H35.314V54.4964C35.3208 54.5482 35.3156 54.6009 35.2988 54.6504C35.282 54.6999 35.2541 54.7449 35.2171 54.7818C35.1801 54.8188 35.1352 54.8467 35.0857 54.8636C35.0362 54.8804 34.9835 54.8856 34.9317 54.8788H26.4095Z" fill="url(#paint0_linear)"/>
<path d="M22.5723 19.1865H12.8984V54.6573H22.5723V19.1865Z" fill="url(#paint1_linear)"/>
<path d="M9.67385 31.624H0V54.657H9.67385V31.624Z" fill="url(#paint2_linear)"/>
<path d="M57.1222 27.718C57.1144 23.851 57.6272 20.0007 58.6469 16.2706C59.4921 13.1377 60.8763 10.176 62.7376 7.51805C64.3756 5.20112 66.5278 3.29489 69.0256 1.94868C71.5568 0.66755 74.3539 0 77.1908 0C80.0277 0 82.8248 0.66755 85.356 1.94868C87.8676 3.29199 90.0304 5.20394 91.6716 7.53187C93.5347 10.1888 94.9191 13.1508 95.7623 16.2844C97.7845 23.754 97.7956 31.6256 95.7945 39.1009C94.9741 42.1738 93.597 45.0701 91.7315 47.6461C90.0688 49.9127 87.9081 51.7676 85.4159 53.0681C82.8605 54.3229 80.0515 54.9754 77.2046 54.9754C74.3578 54.9754 71.5488 54.3229 68.9934 53.0681C66.4891 51.768 64.3184 49.9079 62.6501 47.6323C60.7844 45.0571 59.4087 42.1604 58.5917 39.0871C57.5964 35.38 57.1022 31.5563 57.1222 27.718V27.718ZM91.1281 27.718C91.0934 24.9972 90.7471 22.2893 90.0962 19.6472C89.5357 17.2879 88.6027 15.0331 87.3322 12.9677C86.2222 11.1568 84.7322 9.60863 82.9652 8.43016C81.2301 7.33192 79.2189 6.74888 77.1655 6.74888C75.112 6.74888 73.1008 7.33192 71.3658 8.43016C69.5991 9.60755 68.1103 11.156 67.0033 12.9677C65.731 15.0322 64.7978 17.2873 64.2394 19.6472C63.5941 22.2959 63.2571 25.0103 63.2351 27.7364C63.251 30.4629 63.5881 33.178 64.2394 35.8256C64.7929 38.1265 65.7271 40.3187 67.0033 42.3117C68.1351 44.0597 69.6369 45.5379 71.4026 46.6419C73.1552 47.6911 75.1596 48.2453 77.2023 48.2453C79.245 48.2453 81.2494 47.6911 83.002 46.6419C84.7569 45.5275 86.2473 44.0434 87.3691 42.2933C88.6435 40.2994 89.5776 38.1074 90.133 35.8072C90.7712 33.1579 91.0974 30.443 91.105 27.718H91.1281Z" fill="url(#paint3_linear)"/>
<path d="M98.8623 18.0254H109.425C113.943 18.0254 117.178 18.8653 119.131 20.5452C120.801 21.8926 121.973 23.7585 122.462 25.8474C122.985 28.5249 123.219 31.2506 123.162 33.978V54.657H117.791V34.0517C117.791 33.1304 117.768 32.3611 117.726 31.7484C117.657 30.9237 117.515 30.1068 117.303 29.3069C117.109 28.4359 116.756 27.6081 116.261 26.8654C115.745 26.1631 115.077 25.5854 114.308 25.1748C113.35 24.6689 112.277 24.4197 111.194 24.4516H104.238V54.657H98.8623V18.0254Z" fill="url(#paint4_linear)"/>
<path d="M139.626 16.8048C146.542 17.1641 150 20.7511 150 27.5658C150 36.0604 145.547 40.3077 136.641 40.3077H134.139V34.4296H137.069C139.796 34.4296 141.688 33.9091 142.744 32.868C143.801 31.8269 144.331 30.0841 144.334 27.6395C144.334 26.0641 143.865 24.8817 142.929 24.0924C141.91 23.2756 140.631 22.8551 139.326 22.9085C136.44 22.9085 134.172 24.18 132.522 26.7228C130.873 29.2656 130.049 32.3183 130.049 35.8807C130.049 39.6489 130.933 42.7015 132.702 45.0386C133.483 46.1455 134.523 47.0443 135.732 47.6562C136.94 48.2681 138.281 48.5746 139.635 48.5489C142.196 48.5489 144.292 47.7611 145.923 46.1857L149.585 50.6863C148.311 52.0466 146.77 53.1286 145.057 53.8643C143.345 54.6 141.499 54.9735 139.635 54.9612C134.992 54.9612 131.288 53.2568 128.524 49.8479C125.76 46.439 124.378 42.0382 124.378 36.6454C124.378 30.6415 125.741 25.7831 128.469 22.0701C131.196 18.3572 134.915 16.6021 139.626 16.8048Z" fill="url(#paint5_linear)"/>
<defs>
<linearGradient id="paint0_linear" x1="-13.3132" y1="27.944" x2="155.901" y2="29.1694" gradientUnits="userSpaceOnUse">
<stop offset="0.17" stop-color="#223ABD"/>
<stop offset="0.99" stop-color="#4C63F7"/>
</linearGradient>
<linearGradient id="paint1_linear" x1="302.727" y1="4169.62" x2="3856.4" y2="4176.67" gradientUnits="userSpaceOnUse">
<stop offset="0.17" stop-color="#223ABD"/>
<stop offset="0.99" stop-color="#4C63F7"/>
</linearGradient>
<linearGradient id="paint2_linear" x1="288.861" y1="3042.27" x2="3842.61" y2="3053.11" gradientUnits="userSpaceOnUse">
<stop offset="0.17" stop-color="#223ABD"/>
<stop offset="0.99" stop-color="#4C63F7"/>
</linearGradient>
<linearGradient id="paint3_linear" x1="-13.3035" y1="26.8289" x2="155.911" y2="28.0589" gradientUnits="userSpaceOnUse">
<stop offset="0.17" stop-color="#223ABD"/>
<stop offset="0.82" stop-color="#4C63F7"/>
</linearGradient>
<linearGradient id="paint4_linear" x1="827.623" y1="4208.32" x2="9757.03" y2="4251.39" gradientUnits="userSpaceOnUse">
<stop offset="0.17" stop-color="#223ABD"/>
<stop offset="0.99" stop-color="#4C63F7"/>
</linearGradient>
<linearGradient id="paint5_linear" x1="892.778" y1="4323.41" x2="10304.7" y2="4369.33" gradientUnits="userSpaceOnUse">
<stop offset="0.17" stop-color="#223ABD"/>
<stop offset="0.99" stop-color="#4C63F7"/>
</linearGradient>
</defs>
</svg>
