<svg width="150" height="57" viewBox="0 0 150 57" fill="none" xmlns="http://www.w3.org/2000/svg">
<path fill-rule="evenodd" clip-rule="evenodd" d="M20.0275 55.8634H23.6844C24.5687 55.8193 25.4268 55.5482 26.176 55.0762C26.9252 54.6042 27.5402 53.9472 27.9618 53.1686L43.11 26.2153C43.4117 25.7151 43.6023 25.156 43.6692 24.5758C43.736 23.9956 43.6774 23.4077 43.4973 22.8521C43.3173 22.2965 43.02 21.786 42.6256 21.3553C42.2312 20.9245 41.7488 20.5835 41.2112 20.3553L37.1796 18.5388C36.6485 18.3104 36.0772 18.1898 35.4991 18.1842C34.921 18.1786 34.3475 18.2881 33.812 18.5062C33.2766 18.7244 32.7899 19.0468 32.3802 19.4548C31.9706 19.8628 31.6462 20.3483 31.4259 20.8828L21.925 40.0321H21.7842L12.27 20.827C12.05 20.2916 11.7256 19.8053 11.3157 19.3965C10.9058 18.9878 10.4186 18.6648 9.88247 18.4463C9.34639 18.2279 8.77217 18.1184 8.19332 18.1242C7.61447 18.1301 7.04257 18.2511 6.51101 18.4804L2.48476 20.3088C1.94712 20.537 1.46477 20.878 1.07034 21.3088C0.675921 21.7395 0.378631 22.25 0.19859 22.8056C0.018548 23.3612 -0.0400441 23.9491 0.0267783 24.5293C0.0936006 25.1095 0.284278 25.6686 0.585908 26.1688L15.7382 53.1167C16.1538 53.9067 16.7678 54.5749 17.5198 55.0558C18.2719 55.5366 19.1361 55.8136 20.0275 55.8594V55.8634Z" fill="#652C90"/>
<path fill-rule="evenodd" clip-rule="evenodd" d="M86.6144 55.864H90.2354C91.12 55.821 91.9785 55.5503 92.7279 55.0782C93.4773 54.6061 94.092 53.9486 94.5128 53.1692L109.661 26.216C109.963 25.7158 110.153 25.1567 110.22 24.5765C110.287 23.9962 110.228 23.4084 110.048 22.8528C109.868 22.2972 109.571 21.7867 109.177 21.356C108.782 20.9252 108.3 20.5842 107.762 20.356L103.731 18.5395C103.2 18.311 102.628 18.1905 102.05 18.1849C101.472 18.1793 100.899 18.2888 100.363 18.5069C99.8276 18.725 99.3409 19.0475 98.9313 19.4555C98.5216 19.8635 98.1972 20.3489 97.977 20.8835L88.508 40.0314H88.3552L78.8569 20.8277C78.6366 20.2931 78.3123 19.8077 77.9026 19.3997C77.493 18.9917 77.0063 18.6692 76.4708 18.4511C75.9354 18.233 75.3619 18.1235 74.7838 18.1291C74.2056 18.1347 73.6344 18.2552 73.1032 18.4837L69.0717 20.2962C68.534 20.5244 68.0517 20.8654 67.6573 21.2962C67.2628 21.7269 66.9655 22.2374 66.7855 22.793C66.6055 23.3486 66.5469 23.9364 66.6137 24.5167C66.6805 25.0969 66.8712 25.656 67.1728 26.1562L82.3211 53.1094C82.7363 53.9015 83.3505 54.572 84.1032 55.0549C84.856 55.5379 85.7213 55.8167 86.6144 55.864Z" fill="#652C90"/>
<path d="M131.086 18.258C127.324 18.2407 123.642 19.3403 120.505 21.4177C117.369 23.495 114.92 26.4566 113.468 29.9272C112.017 33.3977 111.628 37.2211 112.351 40.9128C113.074 44.6045 114.877 47.9985 117.531 50.6648C120.185 53.331 123.571 55.1495 127.259 55.8898C130.947 56.6301 134.772 56.259 138.25 54.8234C141.727 53.3878 144.7 50.9524 146.792 47.8257C148.883 44.699 150 41.0217 150 37.2598C150 32.2354 148.01 27.4154 144.466 23.8544C140.921 20.2934 136.11 18.2812 131.086 18.258V18.258ZM131.086 44.7542C129.601 44.761 128.148 44.327 126.91 43.5071C125.672 42.6872 124.706 41.5183 124.133 40.1485C123.56 38.7787 123.406 37.2697 123.692 35.8126C123.977 34.3556 124.689 33.016 125.736 31.9637C126.784 30.9114 128.12 30.1937 129.576 29.9015C131.031 29.6093 132.541 29.7558 133.914 30.3224C135.286 30.889 136.459 31.8502 137.285 33.0843C138.11 34.3183 138.551 35.7697 138.551 37.2545C138.551 39.2376 137.766 41.1399 136.367 42.5454C134.968 43.9509 133.069 44.7451 131.086 44.7542Z" fill="#652C90"/>
<path d="M55.1361 14.8825C59.2326 14.8825 62.5534 11.5509 62.5534 7.44126C62.5534 3.33156 59.2326 0 55.1361 0C51.0396 0 47.7188 3.33156 47.7188 7.44126C47.7188 11.5509 51.0396 14.8825 55.1361 14.8825Z" fill="#652C90"/>
<path fill-rule="evenodd" clip-rule="evenodd" d="M48.69 23.2382C48.6884 22.6365 48.8053 22.0404 49.0341 21.4839C49.2629 20.9275 49.5991 20.4215 50.0234 19.9949C50.4478 19.5684 50.952 19.2296 51.5073 18.9979C52.0625 18.7662 52.658 18.6461 53.2597 18.6445H57.08C58.2944 18.6488 59.4575 19.135 60.3136 19.9963C61.1698 20.8577 61.6489 22.0237 61.6457 23.2382V51.2758C61.6473 51.8774 61.5303 52.4735 61.3015 53.03C61.0727 53.5865 60.7366 54.0925 60.3122 54.519C59.8879 54.9456 59.3837 55.2844 58.8284 55.5161C58.2731 55.7478 57.6777 55.8678 57.076 55.8694H53.2597C52.658 55.8678 52.0625 55.7478 51.5073 55.5161C50.952 55.2844 50.4478 54.9456 50.0234 54.519C49.5991 54.0925 49.2629 53.5865 49.0341 53.03C48.8053 52.4735 48.6884 51.8774 48.69 51.2758V23.2382Z" fill="#652C90"/>
</svg>
