<svg width="82" height="30" viewBox="0 0 82 30" fill="none" xmlns="http://www.w3.org/2000/svg">
<path d="M14.3162 29.9977C14.288 30.0019 14.2592 29.9995 14.2322 29.9906C14.2051 29.9816 14.1805 29.9665 14.1603 29.9463C14.1402 29.9262 14.125 29.9016 14.1161 29.8745C14.1072 29.8474 14.1047 29.8187 14.1089 29.7905L14.1913 1.37053C14.188 1.34811 14.1899 1.32521 14.197 1.30367C14.2041 1.28213 14.2161 1.26256 14.2321 1.24652C14.2482 1.23049 14.2678 1.21844 14.2893 1.21136C14.3108 1.20427 14.3337 1.20234 14.3562 1.20572H27.591C27.7283 1.20572 27.7983 1.26066 27.7983 1.37053V6.04518C27.8016 6.0676 27.7997 6.0905 27.7926 6.11204C27.7855 6.13358 27.7735 6.15315 27.7574 6.16918C27.7414 6.18522 27.7218 6.19726 27.7003 6.20435C27.6788 6.21144 27.6559 6.21337 27.6334 6.20999H19.1432V12.6226H27.6334C27.7433 12.6226 27.7983 12.6926 27.7983 12.8299L27.8407 17.5045C27.8407 17.6144 27.7708 17.6694 27.6334 17.6694H19.1432V29.7905C19.1469 29.8186 19.144 29.8471 19.1349 29.8739C19.1258 29.9008 19.1107 29.9251 19.0906 29.9452C19.0706 29.9652 19.0462 29.9804 19.0194 29.9895C18.9926 29.9986 18.964 30.0014 18.9359 29.9977H14.3162Z" fill="white"/>
<path d="M12.2362 10.6504H6.99219V29.8784H12.2362V10.6504Z" fill="white"/>
<path d="M5.24399 17.3936H0V29.8792H5.24399V17.3936Z" fill="white"/>
<path d="M30.9642 15.0253C30.96 12.9291 31.238 10.8419 31.7907 8.81994C32.2489 7.12168 32.9992 5.51618 34.0082 4.07538C34.8961 2.81942 36.0628 1.78609 37.4168 1.05634C38.7889 0.361865 40.3051 0 41.843 0C43.3808 0 44.897 0.361865 46.2691 1.05634C47.6307 1.78452 48.8031 2.82095 49.6927 4.08287C50.7027 5.52311 51.4531 7.12879 51.9102 8.82743C53.0063 12.8766 53.0124 17.1435 51.9277 21.1958C51.4829 22.8615 50.7364 24.4315 49.7252 25.8279C48.8238 27.0566 47.6526 28.0621 46.3016 28.7671C44.9164 29.4473 43.3937 29.801 41.8505 29.801C40.3072 29.801 38.7845 29.4473 37.3993 28.7671C36.0418 28.0623 34.8651 27.054 33.9607 25.8205C32.9494 24.4245 32.2036 22.8542 31.7608 21.1883C31.2213 19.1787 30.9534 17.106 30.9642 15.0253V15.0253ZM49.3981 15.0253C49.3792 13.5504 49.1916 12.0825 48.8387 10.6503C48.5349 9.37143 48.0291 8.14914 47.3404 7.02949C46.7387 6.04787 45.931 5.20863 44.9731 4.56981C44.0326 3.97448 42.9423 3.65843 41.8292 3.65843C40.7161 3.65843 39.6259 3.97448 38.6853 4.56981C37.7276 5.20805 36.9206 6.04744 36.3205 7.02949C35.6308 8.14863 35.125 9.37109 34.8223 10.6503C34.4725 12.0861 34.2898 13.5576 34.2779 15.0353C34.2865 16.5133 34.4692 17.9851 34.8223 19.4203C35.1223 20.6676 35.6287 21.8559 36.3205 22.9363C36.9341 23.8838 37.7482 24.6851 38.7053 25.2836C39.6554 25.8524 40.7419 26.1527 41.8492 26.1527C42.9565 26.1527 44.0431 25.8524 44.9931 25.2836C45.9444 24.6795 46.7523 23.875 47.3604 22.9263C48.0512 21.8454 48.5576 20.6572 48.8587 19.4103C49.2046 17.9742 49.3815 16.5025 49.3856 15.0253H49.3981Z" fill="white"/>
<path d="M53.5913 10.0215H59.3173C61.7661 10.0215 63.5199 10.4768 64.5787 11.3874C65.4837 12.1178 66.119 13.1293 66.3842 14.2616C66.6675 15.713 66.7948 17.1906 66.7637 18.6691V29.8787H63.8521V18.709C63.8521 18.2096 63.8396 17.7926 63.8171 17.4605C63.7795 17.0134 63.7027 16.5705 63.5874 16.137C63.4824 15.6648 63.2911 15.2161 63.023 14.8135C62.743 14.4328 62.3812 14.1196 61.9642 13.897C61.4448 13.6228 60.8633 13.4877 60.2762 13.505H56.5055V29.8787H53.5913V10.0215Z" fill="white"/>
<path d="M75.6879 9.11009C79.4369 9.30487 81.3114 11.2493 81.3114 14.9434C81.3114 19.5481 78.8975 21.8505 74.0697 21.8505H72.7138V18.6641H74.302C75.7803 18.6641 76.8058 18.382 77.3785 17.8176C77.9511 17.2533 78.2383 16.3085 78.24 14.9834C78.24 14.1293 77.9861 13.4884 77.4783 13.0606C76.9263 12.6178 76.2327 12.3898 75.5256 12.4188C73.9607 12.4188 72.7313 13.108 71.8373 14.4864C70.9433 15.8649 70.4963 17.5196 70.4963 19.4507C70.4963 21.4934 70.9758 23.1482 71.9347 24.4151C72.358 25.0151 72.9219 25.5023 73.5771 25.834C74.2322 26.1657 74.9587 26.3318 75.6929 26.3179C77.0813 26.3179 78.2175 25.8909 79.1015 25.0368L81.0867 27.4765C80.3961 28.2139 79.5604 28.8005 78.6321 29.1993C77.7039 29.5981 76.7032 29.8005 75.6929 29.7939C73.1758 29.7939 71.1681 28.8699 69.6698 27.0221C68.1715 25.1742 67.4224 22.7886 67.4224 19.8653C67.4224 16.6107 68.1615 13.977 69.6398 11.9643C71.1181 9.95163 73.1342 9.00022 75.6879 9.11009Z" fill="white"/>
</svg>
