<svg width="150" height="56" viewBox="0 0 150 56" fill="none" xmlns="http://www.w3.org/2000/svg">
<path d="M26.4095 55.3387C26.3575 55.3465 26.3044 55.342 26.2544 55.3255C26.2045 55.3091 26.1591 55.2811 26.1219 55.2439C26.0847 55.2068 26.0568 55.1614 26.0403 55.1114C26.0239 55.0615 26.0194 55.0084 26.0271 54.9564L26.1792 2.5287C26.1729 2.48734 26.1765 2.44509 26.1896 2.40536C26.2026 2.36562 26.2248 2.32951 26.2544 2.29994C26.284 2.27036 26.3201 2.24814 26.3598 2.23506C26.3996 2.22199 26.4418 2.21843 26.4832 2.22467H50.8982C51.1515 2.22467 51.2805 2.32601 51.2805 2.5287V11.1523C51.2867 11.1936 51.2832 11.2359 51.2701 11.2756C51.257 11.3153 51.2348 11.3514 51.2052 11.381C51.1757 11.4106 51.1395 11.4328 51.0998 11.4459C51.0601 11.459 51.0178 11.4625 50.9765 11.4563H35.314V23.286H50.9765C51.1792 23.286 51.2805 23.415 51.2805 23.6684L51.3588 32.2919C51.3588 32.4946 51.2298 32.596 50.9765 32.596H35.314V54.9564C35.3208 55.0082 35.3156 55.0609 35.2988 55.1104C35.282 55.1599 35.2541 55.2048 35.2171 55.2418C35.1801 55.2787 35.1352 55.3067 35.0857 55.3235C35.0362 55.3403 34.9835 55.3455 34.9317 55.3387H26.4095Z" fill="white"/>
<path d="M22.5723 19.6475H12.8984V55.1183H22.5723V19.6475Z" fill="white"/>
<path d="M9.67385 32.085H0V55.1179H9.67385V32.085Z" fill="white"/>
<path d="M57.1222 27.718C57.1144 23.851 57.6272 20.0007 58.6469 16.2706C59.4921 13.1377 60.8763 10.176 62.7376 7.51805C64.3756 5.20112 66.5278 3.29489 69.0256 1.94868C71.5568 0.66755 74.3539 0 77.1908 0C80.0277 0 82.8248 0.66755 85.356 1.94868C87.8676 3.29199 90.0304 5.20394 91.6716 7.53187C93.5347 10.1888 94.9191 13.1508 95.7623 16.2844C97.7845 23.754 97.7956 31.6256 95.7945 39.1009C94.9741 42.1738 93.597 45.0701 91.7315 47.6461C90.0688 49.9127 87.9081 51.7676 85.4159 53.0681C82.8605 54.3229 80.0515 54.9754 77.2046 54.9754C74.3578 54.9754 71.5488 54.3229 68.9934 53.0681C66.4891 51.768 64.3184 49.9079 62.6501 47.6323C60.7844 45.0571 59.4087 42.1604 58.5917 39.0871C57.5964 35.38 57.1022 31.5563 57.1222 27.718V27.718ZM91.1281 27.718C91.0934 24.9972 90.7471 22.2893 90.0962 19.6472C89.5357 17.2879 88.6027 15.0331 87.3322 12.9677C86.2222 11.1568 84.7322 9.60863 82.9652 8.43016C81.2301 7.33192 79.2189 6.74888 77.1655 6.74888C75.112 6.74888 73.1008 7.33192 71.3658 8.43016C69.5991 9.60755 68.1103 11.156 67.0033 12.9677C65.731 15.0322 64.7978 17.2873 64.2394 19.6472C63.5941 22.2959 63.2571 25.0103 63.2351 27.7364C63.251 30.4629 63.5881 33.178 64.2394 35.8256C64.7929 38.1265 65.7271 40.3187 67.0033 42.3117C68.1351 44.0597 69.6369 45.5379 71.4026 46.6419C73.1552 47.6911 75.1596 48.2453 77.2023 48.2453C79.245 48.2453 81.2494 47.6911 83.002 46.6419C84.7569 45.5275 86.2473 44.0434 87.3691 42.2933C88.6435 40.2994 89.5776 38.1074 90.133 35.8072C90.7712 33.1579 91.0974 30.443 91.105 27.718H91.1281Z" fill="white"/>
<path d="M98.8623 18.4863H109.425C113.943 18.4863 117.178 19.3263 119.131 21.0061C120.801 22.3535 121.973 24.2195 122.462 26.3083C122.985 28.9858 123.219 31.7115 123.162 34.439V55.118H117.791V34.5127C117.791 33.5914 117.768 32.8221 117.726 32.2094C117.657 31.3847 117.515 30.5677 117.303 29.7679C117.109 28.8968 116.756 28.0691 116.261 27.3264C115.745 26.624 115.077 26.0463 114.308 25.6358C113.35 25.1298 112.277 24.8807 111.194 24.9125H104.238V55.118H98.8623V18.4863Z" fill="white"/>
<path d="M139.626 16.8048C146.542 17.1641 150 20.7511 150 27.5658C150 36.0604 145.547 40.3077 136.641 40.3077H134.139V34.4296H137.069C139.796 34.4296 141.688 33.9091 142.744 32.868C143.801 31.8269 144.331 30.0841 144.334 27.6395C144.334 26.0641 143.865 24.8817 142.929 24.0924C141.91 23.2756 140.631 22.8551 139.326 22.9085C136.44 22.9085 134.172 24.18 132.522 26.7228C130.873 29.2656 130.049 32.3183 130.049 35.8807C130.049 39.6489 130.933 42.7015 132.702 45.0386C133.483 46.1455 134.523 47.0443 135.732 47.6562C136.94 48.2681 138.281 48.5746 139.635 48.5489C142.196 48.5489 144.292 47.7611 145.923 46.1857L149.585 50.6863C148.311 52.0466 146.77 53.1286 145.057 53.8643C143.345 54.6 141.499 54.9735 139.635 54.9612C134.992 54.9612 131.288 53.2568 128.524 49.8479C125.76 46.439 124.378 42.0382 124.378 36.6454C124.378 30.6415 125.741 25.7831 128.469 22.0701C131.196 18.3572 134.915 16.6021 139.626 16.8048Z" fill="white"/>
</svg>
