<svg width="150" height="40" viewBox="0 0 150 40" fill="none" xmlns="http://www.w3.org/2000/svg">
<path d="M86.1454 0C86.9452 0 87.0957 0.111874 87.0957 2.93702V5.54999C87.0957 8.27484 86.8835 8.58731 86.1454 8.58731H77.144V39.1483C77.144 39.8362 76.294 39.9983 73.2863 39.9983H71.6841C68.6094 39.9983 68.0835 39.8362 68.0835 39.1483V8.58731H59.0821C58.3453 8.58731 58.1318 8.37514 58.1318 5.54999V2.93702C58.1344 0 58.2964 0 59.0847 0H86.1454ZM102.295 0.849987C102.295 0.257182 101.445 0 98.5454 0H96.8275C93.7413 0 93.2269 0.257182 93.2269 0.849987V39.1483C93.2269 39.8362 93.7516 39.9983 96.8275 39.9983H98.5274C101.44 39.9983 102.277 39.8362 102.277 39.1483L102.295 0.849987ZM146.244 0H143.593C140.206 0 139.993 0.375486 139.736 0.961861L134.498 13.6487C132.748 17.8613 130.948 22.3929 130.255 24.7358C129.073 20.9024 127.656 17.1456 126.011 13.4866L120.77 0.961861C120.445 0.212175 119.132 0 116.245 0H113.308C110.395 0 109.807 0.257182 109.807 0.849987V39.1483C109.807 39.8362 110.395 39.9983 113.408 39.9983H114.995C117.952 39.9983 118.745 39.8362 118.745 39.1483V16.4249H118.957C119.135 17.1162 119.365 17.7932 119.645 18.4502L125.682 32.6866C125.939 33.3295 126.27 33.5996 129.069 33.5996H130.869C133.732 33.5996 133.944 33.3874 134.213 32.6866L139.725 18.9376C140.25 17.6877 140.626 16.4378 140.626 16.4378H140.838V39.1483C140.838 39.8362 141.425 39.9983 144.587 39.9983H146.25C149.163 39.9983 150 39.8362 150 39.1483V0.849987C149.993 0.257182 149.143 0 146.244 0Z" fill="#004691"/>
<path d="M45.2358 8.5616H2.28766C1.98455 8.56188 1.68447 8.50125 1.40525 8.38329C1.12603 8.26532 0.873368 8.09245 0.662273 7.87492C0.2354 7.44193 -0.00269586 6.85755 2.92369e-05 6.24953V2.31464C-0.00303634 1.70617 0.235085 1.12127 0.662273 0.687963C0.873259 0.470204 1.12587 0.297087 1.4051 0.178902C1.68432 0.0607175 1.98446 -0.000121948 2.28766 1.83514e-07H45.2371C45.5403 -0.000121948 45.8404 0.0607175 46.1197 0.178902C46.3989 0.297087 46.6515 0.470204 46.8625 0.687963C47.2823 1.12407 47.5133 1.70807 47.5054 2.31335V6.24953C47.5048 6.8531 47.2669 7.43224 46.8432 7.86206C46.6362 8.07883 46.3882 8.2523 46.1136 8.37239C45.839 8.49248 45.5432 8.5568 45.2435 8.5616H45.2358ZM18.9865 15.7241H2.28766C1.98755 15.7241 1.69042 15.7838 1.41358 15.8997C1.13675 16.0156 0.885727 16.1854 0.675132 16.3992C0.243547 16.8301 0.000720712 17.4147 2.92369e-05 18.0246V21.9749C-0.00269586 22.583 0.2354 23.1673 0.662273 23.6003C0.87434 23.8158 1.12744 23.9865 1.40661 24.1024C1.68579 24.2184 1.98537 24.2772 2.28766 24.2754H19.0122L18.9865 15.7241ZM46.8355 16.4121C46.6245 16.1943 46.3719 16.0212 46.0927 15.903C45.8134 15.7848 45.5133 15.724 45.2101 15.7241H28.5112V24.2741H45.2358C45.539 24.2743 45.8392 24.2134 46.1184 24.0952C46.3976 23.9771 46.6502 23.8039 46.8612 23.5862C47.2779 23.1533 47.5086 22.5745 47.5042 21.9736V18.0246C47.512 17.4193 47.281 16.8353 46.8612 16.3992L46.8355 16.4121ZM46.8355 32.1233C46.6245 31.9056 46.3719 31.7325 46.0927 31.6143C45.8134 31.4961 45.5133 31.4353 45.2101 31.4354H28.5112V39.997H45.2358C45.539 39.9971 45.8392 39.9363 46.1184 39.8181C46.3976 39.6999 46.6502 39.5268 46.8612 39.309C47.281 38.8729 47.512 38.2889 47.5042 37.6836V33.7487C47.512 33.1434 47.281 32.5594 46.8612 32.1233H46.8355ZM18.9865 31.4354H2.28766C1.98755 31.4354 1.69042 31.4951 1.41358 31.611C1.13675 31.7269 0.885727 31.8967 0.675132 32.1105C0.459896 32.3254 0.289406 32.5808 0.173526 32.862C0.0576463 33.1432 -0.00132318 33.4446 2.92369e-05 33.7487V37.6991C-0.00235568 38.3066 0.235715 38.8905 0.662273 39.3232C0.87434 39.5386 1.12744 39.7093 1.40661 39.8253C1.68579 39.9412 1.98537 40.0001 2.28766 39.9983H19.0122L18.9865 31.4354Z" fill="#EB0028"/>
</svg>
