<svg width="123" height="46" viewBox="0 0 123 46" fill="none" xmlns="http://www.w3.org/2000/svg">
<path d="M21.6559 45.0003C21.6133 45.0067 21.5697 45.003 21.5288 44.9895C21.4878 44.976 21.4506 44.9531 21.4201 44.9226C21.3896 44.8921 21.3667 44.8549 21.3532 44.8139C21.3397 44.773 21.336 44.7294 21.3424 44.6868L21.467 1.69609C21.4619 1.66218 21.4649 1.62753 21.4756 1.59495C21.4863 1.56237 21.5045 1.53276 21.5288 1.50851C21.553 1.48425 21.5826 1.46603 21.6152 1.45531C21.6478 1.44459 21.6824 1.44167 21.7164 1.44679H41.7366C41.9444 1.44679 42.0502 1.52989 42.0502 1.69609V8.76741C42.0553 8.80132 42.0523 8.83596 42.0416 8.86855C42.0309 8.90113 42.0127 8.93074 41.9884 8.95499C41.9642 8.97925 41.9346 8.99747 41.902 9.00819C41.8694 9.01891 41.8348 9.02183 41.8008 9.01671H28.9577V18.7171H41.8008C41.967 18.7171 42.0502 18.8229 42.0502 19.0306L42.1144 26.1019C42.1144 26.2681 42.0086 26.3512 41.8008 26.3512H28.9577V44.6868C28.9632 44.7293 28.959 44.7725 28.9452 44.8131C28.9314 44.8536 28.9085 44.8905 28.8782 44.9208C28.8479 44.9511 28.811 44.9741 28.7704 44.9878C28.7298 45.0016 28.6866 45.0059 28.6441 45.0003H21.6559Z" fill="url(#paint0_linear)"/>
<path d="M18.5092 15.7334H10.5767V44.8194H18.5092V15.7334Z" fill="url(#paint1_linear)"/>
<path d="M7.93256 25.9316H0V44.8187H7.93256V25.9316Z" fill="url(#paint2_linear)"/>
<path d="M46.8398 22.7287C46.8334 19.5579 47.254 16.4005 48.0902 13.3419C48.7832 10.7729 49.9182 8.3443 51.4445 6.1648C52.7877 4.26492 54.5525 2.70181 56.6007 1.59792C58.6762 0.547391 60.9698 0 63.2961 0C65.6224 0 67.916 0.547391 69.9916 1.59792C72.0511 2.69943 73.8246 4.26723 75.1704 6.17614C76.6982 8.35478 77.8334 10.7837 78.5247 13.3532C80.1829 19.4783 80.192 25.933 78.5512 32.0627C77.8784 34.5825 76.7492 36.9575 75.2195 39.0698C73.856 40.9284 72.0843 42.4495 70.0407 43.5158C67.9453 44.5448 65.6419 45.0798 63.3074 45.0798C60.973 45.0798 58.6696 44.5448 56.5742 43.5158C54.5207 42.4498 52.7408 40.9245 51.3727 39.0585C49.8429 36.9468 48.7148 34.5715 48.0448 32.0514C47.2287 29.0116 46.8235 25.8762 46.8398 22.7287V22.7287ZM74.7247 22.7287C74.6962 20.4977 74.4123 18.2772 73.8785 16.1107C73.419 14.1761 72.6539 12.3272 71.6121 10.6335C70.7019 9.14858 69.4801 7.87907 68.0311 6.91273C66.6084 6.01217 64.9591 5.53409 63.2753 5.53409C61.5915 5.53409 59.9423 6.01217 58.5196 6.91273C57.0709 7.87819 55.8501 9.14794 54.9424 10.6335C53.8991 12.3264 53.1339 14.1756 52.6759 16.1107C52.1468 18.2827 51.8705 20.5085 51.8525 22.7439C51.8655 24.9796 52.1419 27.206 52.6759 29.377C53.1299 31.2637 53.8959 33.0613 54.9424 34.6956C55.8705 36.1289 57.1019 37.3411 58.5498 38.2463C59.9869 39.1067 61.6306 39.5611 63.3056 39.5611C64.9806 39.5611 66.6242 39.1067 68.0613 38.2463C69.5003 37.3325 70.7224 36.1156 71.6423 34.6805C72.6874 33.0455 73.4533 31.2481 73.9088 29.3619C74.4321 27.1895 74.6996 24.9633 74.7058 22.7287H74.7247Z" fill="url(#paint3_linear)"/>
<path d="M81.0669 14.7812H89.7285C93.4329 14.7812 96.0859 15.47 97.6875 16.8475C99.0564 17.9524 100.018 19.4824 100.419 21.1953C100.847 23.3908 101.04 25.6259 100.993 27.8624V44.8192H96.5883V27.9229C96.5883 27.1674 96.5694 26.5365 96.5354 26.0342C96.4786 25.3579 96.3623 24.688 96.1879 24.0321C96.0292 23.3179 95.7397 22.6391 95.3342 22.0301C94.9106 21.4542 94.3633 20.9805 93.7326 20.6438C92.9469 20.2289 92.0671 20.0246 91.179 20.0507H85.4751V44.8192H81.0669V14.7812Z" fill="url(#paint4_linear)"/>
<path d="M114.493 13.7805C120.165 14.0751 123 17.0165 123 22.6045C123 29.5701 119.349 33.0528 112.046 33.0528H109.995V28.2328H112.397C114.633 28.2328 116.184 27.806 117.051 26.9523C117.917 26.0986 118.351 24.6695 118.354 22.6649C118.354 21.3731 117.97 20.4035 117.202 19.7563C116.367 19.0865 115.318 18.7417 114.248 18.7856C111.881 18.7856 110.021 19.8281 108.669 21.9132C107.316 23.9984 106.64 26.5015 106.64 29.4227C106.64 32.5127 107.365 35.0158 108.816 36.9322C109.456 37.8399 110.309 38.5768 111.3 39.0786C112.291 39.5804 113.39 39.8317 114.501 39.8106C116.601 39.8106 118.32 39.1647 119.657 37.8728L122.66 41.5633C121.616 42.6788 120.351 43.566 118.947 44.1693C117.543 44.7726 116.029 45.0788 114.501 45.0688C110.693 45.0688 107.656 43.6711 105.39 40.8758C103.123 38.0806 101.99 34.4719 101.99 30.0498C101.99 25.1266 103.108 21.1427 105.345 18.0981C107.581 15.0535 110.63 13.6143 114.493 13.7805Z" fill="url(#paint5_linear)"/>
<defs>
<linearGradient id="paint0_linear" x1="-10.9167" y1="22.9138" x2="127.839" y2="23.9186" gradientUnits="userSpaceOnUse">
<stop offset="0.17" stop-color="#223ABD"/>
<stop offset="0.99" stop-color="#4C63F7"/>
</linearGradient>
<linearGradient id="paint1_linear" x1="248.236" y1="3419.09" x2="3162.25" y2="3424.87" gradientUnits="userSpaceOnUse">
<stop offset="0.17" stop-color="#223ABD"/>
<stop offset="0.99" stop-color="#4C63F7"/>
</linearGradient>
<linearGradient id="paint2_linear" x1="236.866" y1="2494.66" x2="3150.94" y2="2503.55" gradientUnits="userSpaceOnUse">
<stop offset="0.17" stop-color="#223ABD"/>
<stop offset="0.99" stop-color="#4C63F7"/>
</linearGradient>
<linearGradient id="paint3_linear" x1="-10.9092" y1="21.9997" x2="127.846" y2="23.0083" gradientUnits="userSpaceOnUse">
<stop offset="0.17" stop-color="#223ABD"/>
<stop offset="0.82" stop-color="#4C63F7"/>
</linearGradient>
<linearGradient id="paint4_linear" x1="678.651" y1="3450.82" x2="8000.77" y2="3486.14" gradientUnits="userSpaceOnUse">
<stop offset="0.17" stop-color="#223ABD"/>
<stop offset="0.99" stop-color="#4C63F7"/>
</linearGradient>
<linearGradient id="paint5_linear" x1="732.079" y1="3545.19" x2="8449.89" y2="3582.85" gradientUnits="userSpaceOnUse">
<stop offset="0.17" stop-color="#223ABD"/>
<stop offset="0.99" stop-color="#4C63F7"/>
</linearGradient>
</defs>
</svg>
