<svg width="60" height="60" viewBox="0 0 60 60" fill="none" xmlns="http://www.w3.org/2000/svg">
<path fill-rule="evenodd" clip-rule="evenodd" d="M1.14697 20.1575C-4.32542 40.3011 10.5474 56.0339 29.5479 59.4837C37.6837 60.9836 49.6684 59.9107 49.6684 46.7349C49.6684 25.5193 66.5567 22.3321 57.149 9.52393C52.5003 3.17035 43.3609 0 33.7484 0C19.7793 0 4.79523 6.7043 1.14697 20.1575Z" fill="url(#paint0_linear)"/>
<path d="M26.3316 38.3336C24.1476 38.3336 22.9392 36.1917 22.9392 34.0279C22.9392 31.8641 24.1476 29.7826 26.3316 29.7826C28.5156 29.7826 29.7157 31.8632 29.7157 34.0279C29.7157 36.1927 28.5083 38.3336 26.3316 38.3336ZM26.3316 25.9564C21.531 25.9564 18.4038 29.5458 18.4038 34.0507C18.4038 38.5556 21.5955 42.1826 26.3316 42.1826C31.0677 42.1826 34.2438 38.5932 34.2438 34.0814C34.2438 29.5696 31.0438 25.9871 26.3316 25.9871V25.9564ZM39.244 25.9564C37.6435 25.9564 36.3477 29.5765 36.3477 34.0507C36.3477 38.5249 37.6435 42.1826 39.244 42.1826C40.8446 42.1826 42.1404 38.5546 42.1404 34.0883C42.1404 29.6221 40.8446 25.994 39.244 25.994V25.9564ZM39.244 23.9442C39.8813 23.8324 40.4462 23.4848 40.8152 22.9773C41.1842 22.4698 41.3272 21.8438 41.213 21.2362C41.0988 20.6285 40.7367 20.0887 40.2058 19.7346C39.675 19.3806 39.0186 19.2413 38.3801 19.347C37.7417 19.4528 37.1732 19.7951 36.799 20.2991C36.4248 20.803 36.2752 21.4277 36.3831 22.0364C36.491 22.6451 36.8475 23.1883 37.3746 23.5473C37.9018 23.9063 38.5567 24.0519 39.1962 23.9521L39.244 23.9442Z" fill="white"/>
<defs>
<linearGradient id="paint0_linear" x1="9.84" y1="7.38" x2="54.12" y2="48.9" gradientUnits="userSpaceOnUse">
<stop stop-color="#EA288C"/>
<stop offset="0.14" stop-color="#C729B6"/>
<stop offset="0.3" stop-color="#A72ADE"/>
<stop offset="0.42" stop-color="#932BF6"/>
<stop offset="0.5" stop-color="#8C2BFF"/>
<stop offset="0.56" stop-color="#8434FF"/>
<stop offset="0.65" stop-color="#704CFF"/>
<stop offset="0.77" stop-color="#4E74FF"/>
<stop offset="0.91" stop-color="#20AAFF"/>
<stop offset="1" stop-color="#00D0FF"/>
</linearGradient>
</defs>
</svg>
